<?xml version="1.0" standalone="no"?>
<!DOCTYPE svg PUBLIC "-//W3C//DTD SVG 20010904//EN" "http://www.w3.org/TR/2001/REC-SVG-20010904/DTD/svg10.dtd">
<svg xmlns="http://www.w3.org/2000/svg" version="1.0" width="512.000000pt" height="512.000000pt" viewBox="0 0 512.000000 512.000000" preserveAspectRatio="xMidYMid meet">
<metadata>
Created by potrace 1.16, written by Peter Selinger 2001-2019
<meta name="Producer" content="Online-Convert"/></metadata>
<g transform="translate(0.000000,512.000000) scale(0.100000,-0.100000)" fill="#000000" stroke="none">
<path d="M1850 3516 c-197 -37 -403 -146 -531 -282 -280 -300 -347 -708 -178 -1082 118 -261 377 -472 654 -531 136 -29 209 -33 315 -21 235 28 433 122 590 280 67 67 168 202 163 218 -5 20 -24 7 -47 -32 -14 -24 -60 -81 -102 -125 -196 -208 -463 -307 -746 -279 -296 29 -552 195 -698 453 -94 165 -143 422 -110 573 6 26 16 70 22 97 17 80 80 215 137 298 194 281 555 432 886 372 107 -19 144 -31 231 -70 153 -70 277 -177 370 -317 26 -40 51 -75 56 -76 4 -2 6 -8 3 -13 -4 -5 1 -6 9 -3 21 8 21 5 -16 66 -74 122 -187 245 -293 318 -52 36 -185 100 -260 125 -128 42 -320 56 -455 31z"/>
<path d="M1680 2870 c7 -12 9 -122 8 -312 l-3 -293 -27 -13 c-60 -29 -8 -82 79 -82 68 0 108 22 136 75 20 37 22 60 27 325 3 157 9 293 14 303 8 16 -1 17 -118 17 -123 0 -126 -1 -116 -20z"/>
<path d="M2150 2730 c-18 -18 -20 -33 -20 -131 0 -61 5 -119 10 -130 10 -17 22 -19 138 -19 86 0 132 4 140 12 7 7 12 29 12 50 l0 38 270 0 270 0 0 -32 c-1 -18 -7 -60 -15 -93 -8 -32 -12 -61 -10 -64 3 -2 5 2 6 10 0 8 4 6 8 -6 6 -13 11 14 16 83 l8 102 411 0 412 0 49 -50 c27 -27 58 -50 68 -50 24 0 147 124 147 148 0 18 -128 152 -144 152 -5 0 -37 -26 -70 -57 l-61 -58 -682 3 -683 2 0 44 c0 57 -21 66 -155 66 -92 0 -108 -3 -125 -20z"/>
</g>
</svg>
